<svg width="126" height="126" viewBox="0 0 126 126" fill="none" xmlns="http://www.w3.org/2000/svg">
<path d="M52.5279 8.42462C28.1813 8.42462 8.44458 28.1613 8.44458 52.5079C8.44458 76.8545 28.1813 96.5912 52.5279 96.5912C76.8744 96.5912 96.6112 76.8545 96.6112 52.5079C96.5846 28.1724 76.8634 8.45112 52.5279 8.42462ZM52.5279 12.623C65.4946 12.6333 77.6456 18.9529 85.0991 29.5636L79.8511 34.8116C78.574 34.0388 77.1119 33.6253 75.6191 33.6151C70.9817 33.6151 67.2223 37.3745 67.2223 42.0119C67.2296 43.5063 67.6408 44.9707 68.4125 46.2502L54.667 59.9958C52.0642 58.4088 48.7931 58.4088 46.1904 59.9958L36.6432 50.4486C37.4149 49.1691 37.8261 47.7047 37.8334 46.2103C37.8392 41.5821 34.0921 37.8256 29.4639 37.8198C25.6363 37.8151 22.292 40.4042 21.3379 44.1111H13.5498C17.5244 25.757 33.7484 12.6506 52.5279 12.623ZM79.8175 42.0119C79.8175 44.3307 77.9379 46.2103 75.6191 46.2103C73.3003 46.2103 71.4207 44.3307 71.4207 42.0119C71.4207 39.6931 73.3003 37.8135 75.6191 37.8135C77.9379 37.8135 79.8175 39.6931 79.8175 42.0119ZM54.6271 67.2023C54.6271 69.5212 52.7475 71.4007 50.4287 71.4007C48.1098 71.4007 46.2303 69.5212 46.2303 67.2023C46.2303 64.8835 48.1098 63.0039 50.4287 63.0039C52.7475 63.0039 54.6271 64.8835 54.6271 67.2023ZM33.635 46.2103C33.635 48.5291 31.7555 50.4087 29.4366 50.4087C27.1178 50.4087 25.2382 48.5291 25.2382 46.2103C25.2382 43.8915 27.1178 42.0119 29.4366 42.0119C31.7555 42.0119 33.635 43.8915 33.635 46.2103ZM71.9072 87.3825C65.979 90.6741 59.3088 92.3986 52.5279 92.3925C30.5151 92.4075 12.6579 74.575 12.643 52.5622C12.6419 51.1416 12.717 49.7217 12.8676 48.3092H21.3379C22.2922 52.0051 25.6195 54.5924 29.4366 54.6068C30.931 54.5995 32.3954 54.1883 33.6749 53.4166L43.2221 62.9638C42.4504 64.2432 42.0392 65.7077 42.0318 67.2021C42.0318 71.8395 45.7913 75.5989 50.4287 75.5989C55.0661 75.5989 58.8255 71.8395 58.8255 67.2021C58.8181 65.7077 58.4069 64.2432 57.6352 62.9638L71.3808 49.2182C72.6603 49.9899 74.1247 50.4011 75.6191 50.4084C80.2565 50.4084 84.0159 46.649 84.0159 42.0116C84.0086 40.5173 83.5974 39.0528 82.8257 37.7733L87.4019 33.1992C98.0856 52.4405 91.1482 76.6991 71.9072 87.3825Z" fill="black"/>
<path d="M105.008 21.0198C108.825 21.0054 112.152 18.4184 113.107 14.7222H126V10.5238H113.107C112.152 6.82765 108.825 4.24064 105.008 4.22621C100.371 4.22621 96.6111 7.98562 96.6111 12.623C96.6185 14.1174 97.0297 15.5819 97.8014 16.8613L94.1131 20.5496C76.4653 -2.44218 43.5204 -6.77441 20.5286 10.8733C-2.46314 28.5211 -6.79537 61.4663 10.8524 84.4581C27.5106 106.16 58.0464 111.425 81.0099 96.5534L87.3452 102.889L90.3135 105.857L107.212 122.756C111.51 127.054 118.478 127.054 122.776 122.756C127.073 118.458 127.073 111.49 122.776 107.192L105.877 90.2936L102.909 87.3253L96.5733 80.9899C107.82 63.6673 107.82 41.3488 96.5733 24.0259L100.772 19.8275C102.05 20.5995 103.514 21.0114 105.008 21.0198ZM105.008 8.42461C107.327 8.42461 109.206 10.3042 109.206 12.623C109.206 14.9419 107.327 16.8214 105.008 16.8214C102.689 16.8214 100.81 14.9419 100.81 12.623C100.81 10.3042 102.689 8.42461 105.008 8.42461ZM119.807 110.16C122.496 112.789 122.545 117.099 119.917 119.787C117.289 122.476 112.978 122.525 110.29 119.897C110.253 119.861 110.217 119.824 110.18 119.787L93.2818 102.889L102.909 93.2618L119.807 110.16ZM99.9405 90.2936L90.3135 99.9205L84.5029 94.1099C84.7989 93.8832 85.076 93.6334 85.3678 93.4004C85.6596 93.1674 85.9976 92.8882 86.3103 92.6258C86.7701 92.2395 87.2235 91.8491 87.6685 91.4481C87.8973 91.2382 88.1157 91.0283 88.3403 90.8184C89.2009 90.0123 90.0343 89.1789 90.8404 88.3182C91.0503 88.0936 91.2603 87.8753 91.4702 87.6465C91.8711 87.2015 92.2616 86.748 92.6478 86.2883C92.911 85.9776 93.1692 85.6635 93.4224 85.3458C93.6534 85.0561 93.9032 84.779 94.1299 84.483L99.9405 90.2936ZM91.7998 80.5428C91.1385 81.4664 90.4563 82.3712 89.7362 83.2424C89.5263 83.4964 89.3017 83.742 89.0855 83.9918C88.4431 84.7391 87.7798 85.4641 87.0954 86.1665C86.7974 86.4743 86.4943 86.7774 86.1865 87.0755C85.4867 87.7598 84.7619 88.4232 84.0117 89.0655C83.7619 89.2755 83.5163 89.5043 83.2623 89.7163C82.3911 90.4363 81.4864 91.1186 80.5627 91.7798C58.8318 107.305 28.6297 102.274 13.1048 80.5428C-2.42011 58.8118 2.6109 28.6098 24.3419 13.0848C46.0728 -2.44008 76.2748 2.59067 91.7998 24.3219C103.813 41.137 103.813 63.7276 91.7998 80.5428Z" fill="black"/>
</svg>
