<svg width="100" height="100" viewBox="0 0 100 100" fill="none" xmlns="http://www.w3.org/2000/svg">
<g clip-path="url(#clip0)">
<path d="M41.6888 6.68622C22.3661 6.68622 6.70206 22.3503 6.70206 41.673C6.70206 60.9956 22.3661 76.6597 41.6888 76.6597C61.0115 76.6597 76.6755 60.9956 76.6755 41.673C76.6545 22.359 61.0027 6.70725 41.6888 6.68622ZM41.6888 10.0183C51.9799 10.0264 61.6235 15.042 67.539 23.4632L63.3739 27.6283C62.3603 27.015 61.1999 26.6868 60.0152 26.6786C56.3347 26.6786 53.351 29.6623 53.351 33.3428C53.3569 34.5288 53.6832 35.6911 54.2957 36.7065L43.3865 47.6157C41.3208 46.3562 38.7247 46.3562 36.659 47.6157L29.0819 40.0386C29.6944 39.0231 30.0207 37.8609 30.0265 36.6749C30.0311 33.0017 27.0573 30.0203 23.3841 30.0157C20.3463 30.012 17.6921 32.0668 16.9348 35.0088H10.7539C13.9083 20.442 26.7844 10.0402 41.6888 10.0183ZM63.3472 33.3428C63.3472 35.1831 61.8555 36.6749 60.0152 36.6749C58.1748 36.6749 56.6831 35.1831 56.6831 33.3428C56.6831 31.5024 58.1748 30.0107 60.0152 30.0107C61.8555 30.0107 63.3472 31.5024 63.3472 33.3428ZM43.3548 53.3352C43.3548 55.1755 41.8631 56.6673 40.0228 56.6673C38.1824 56.6673 36.6907 55.1755 36.6907 53.3352C36.6907 51.4949 38.1824 50.0031 40.0228 50.0031C41.8631 50.0031 43.3548 51.4949 43.3548 53.3352ZM26.6945 36.6749C26.6945 38.5152 25.2028 40.0069 23.3624 40.0069C21.5221 40.0069 20.0303 38.5152 20.0303 36.6749C20.0303 34.8345 21.5221 33.3428 23.3624 33.3428C25.2028 33.3428 26.6945 34.8345 26.6945 36.6749ZM57.0692 69.3512C52.3643 71.9636 47.0705 73.3322 41.6888 73.3274C24.2183 73.3393 10.046 59.1865 10.0341 41.7161C10.0333 40.5886 10.0929 39.4617 10.2124 38.3407H16.9348C17.6923 41.2739 20.3329 43.3273 23.3624 43.3388C24.5484 43.333 25.7107 43.0066 26.7261 42.3941L34.3033 49.9713C33.6908 50.9867 33.3644 52.149 33.3586 53.335C33.3586 57.0155 36.3423 59.9991 40.0228 59.9991C43.7032 59.9991 46.6869 57.0155 46.6869 53.335C46.6811 52.149 46.3547 50.9867 45.7423 49.9713L56.6514 39.0621C57.6669 39.6745 58.8292 40.0009 60.0152 40.0067C63.6957 40.0067 66.6793 37.0231 66.6793 33.3426C66.6735 32.1566 66.3471 30.9943 65.7347 29.9788L69.3666 26.3486C77.8457 41.6194 72.3399 60.8724 57.0692 69.3512Z" fill="black"/>
<path d="M83.3397 16.6824C86.3691 16.671 89.0098 14.6178 89.7672 11.6843H100V8.35225H89.7672C89.0098 5.41878 86.3691 3.3656 83.3397 3.35414C79.6592 3.35414 76.6755 6.3378 76.6755 10.0183C76.6814 11.2043 77.0077 12.3666 77.6202 13.382L74.6929 16.3092C60.6868 -1.93822 34.54 -5.3765 16.2926 8.62964C-1.95486 22.6358 -5.39313 48.7828 8.61301 67.0302C21.8338 84.2543 46.0686 88.4325 64.2936 76.6297L69.3216 81.6578L71.6774 84.0136L85.089 97.4251C88.5 100.836 94.03 100.836 97.441 97.4251C100.852 94.0141 100.852 88.4842 97.441 85.0732L84.0294 71.6616L81.6736 69.3058L76.6455 64.2777C85.5711 50.5296 85.5711 32.8165 76.6455 19.0682L79.9776 15.7361C80.9924 16.3488 82.1543 16.6758 83.3397 16.6824ZM83.3397 6.68621C85.18 6.68621 86.6717 8.17794 86.6717 10.0183C86.6717 11.8586 85.18 13.3504 83.3397 13.3504C81.4993 13.3504 80.0076 11.8586 80.0076 10.0183C80.0076 8.17794 81.4995 6.68621 83.3397 6.68621ZM95.0852 87.4289C97.219 89.5148 97.2579 92.9356 95.172 95.0694C93.0862 97.2031 89.6654 97.2421 87.5316 95.1562C87.5022 95.1277 87.4735 95.0987 87.4448 95.0694L74.0332 81.6578L81.6736 74.0174L95.0852 87.4289ZM79.3179 71.6616L71.6774 79.302L67.0658 74.6904C67.3007 74.5105 67.5207 74.3122 67.7522 74.1273C67.9838 73.9424 68.252 73.7208 68.5003 73.5125C68.8651 73.206 69.225 72.8961 69.5782 72.5779C69.7598 72.4113 69.9331 72.2447 70.1113 72.0781C70.7944 71.4383 71.4558 70.7769 72.0956 70.0938C72.2622 69.9156 72.4288 69.7423 72.5954 69.5607C72.9136 69.2075 73.2235 68.8476 73.53 68.4828C73.7389 68.2362 73.9438 67.9869 74.1448 67.7347C74.3281 67.5048 74.5263 67.2849 74.7063 67.05L79.3179 71.6616ZM72.857 63.9229C72.3322 64.6559 71.7907 65.374 71.2193 66.0654C71.0527 66.267 70.8744 66.4619 70.7028 66.6601C70.193 67.2533 69.6665 67.8287 69.1234 68.3862C68.8868 68.6304 68.6463 68.871 68.402 69.1076C67.8466 69.6507 67.2714 70.1771 66.676 70.6869C66.4777 70.8536 66.2828 71.0352 66.0812 71.2034C65.3898 71.7749 64.6717 72.3163 63.9387 72.8411C46.6919 85.1625 22.722 81.1696 10.4007 63.9229C-1.9207 46.6761 2.07216 22.7062 19.3189 10.3848C36.5657 -1.93656 60.5356 2.05609 72.857 19.3031C82.3911 32.6485 82.3911 50.5775 72.857 63.9229Z" fill="black"/>
</g>
<defs>
<clipPath id="clip0">
<rect width="100" height="100" fill="white"/>
</clipPath>
</defs>
</svg>
