<svg width="126" height="126" viewBox="0 0 126 126" fill="none" xmlns="http://www.w3.org/2000/svg">
<path d="M77.7656 85.1484C76.4073 85.1484 75.3047 86.2511 75.3047 87.6094C75.3047 88.9677 76.4073 90.0703 77.7656 90.0703C79.1239 90.0703 80.2266 88.9677 80.2266 87.6094C80.2266 86.2511 79.1239 85.1484 77.7656 85.1484Z" fill="black"/>
<path d="M113.695 0H12.3047C5.51981 0 0 5.51981 0 12.3047V87.6094C0 94.3943 5.51981 99.9141 12.3047 99.9141H50.6953V111.234H48.2344C44.9486 111.234 41.86 112.515 39.5346 114.839C37.2101 117.165 35.9297 120.253 35.9297 123.539C35.9297 124.898 37.0313 126 38.3906 126H87.6094C88.9687 126 90.0703 124.898 90.0703 123.539C90.0703 116.754 84.5505 111.234 77.7656 111.234H75.3047V99.9141H113.695C120.48 99.9141 126 94.3943 126 87.6094V12.3047C126 5.51981 120.48 0 113.695 0ZM12.3047 4.92188H113.695C117.766 4.92188 121.078 8.23357 121.078 12.3047V75.3047H109.758V18.7031C109.758 17.3438 108.656 16.2422 107.297 16.2422H87.6094C86.2501 16.2422 85.1484 17.3438 85.1484 18.7031V75.3047H72.8303C72.8043 72.7592 72.738 70.2502 72.6323 67.8161C72.2016 57.7936 71.2201 51.0798 70.7097 48.1267C75.7873 44.3882 77.1735 37.4591 74.0694 32.0758L65.5398 17.3025C65.0995 16.5412 64.2872 16.072 63.4086 16.072C62.529 16.072 61.7167 16.5412 61.2773 17.3025L52.7439 32.0768C49.8176 37.1525 50.8549 43.7268 55.4518 47.6066C54.9193 50.5511 53.8445 57.5052 53.3773 67.8113C53.2668 70.2713 53.1966 72.7822 53.1697 75.3047H40.8516V38.3906C40.8516 38.0003 40.7593 37.6447 40.6084 37.3284C40.6016 37.3159 40.5978 37.3024 40.592 37.2899L30.7483 17.6024C30.3311 16.769 29.4793 16.2422 28.5469 16.2422C27.6144 16.2422 26.7627 16.769 26.3455 17.6024L16.5017 37.2899C16.496 37.3024 16.4921 37.3159 16.4864 37.3284C16.3326 37.6475 16.2422 38.009 16.2422 38.3906V75.3047H4.92188V12.3047C4.92188 8.23357 8.23357 4.92188 12.3047 4.92188ZM90.0703 75.3047V21.1641H104.836V26.0859H102.375C101.016 26.0859 99.9141 27.1876 99.9141 28.5469C99.9141 29.9062 101.016 31.0078 102.375 31.0078H104.836V38.3906H102.375C101.016 38.3906 99.9141 39.4923 99.9141 40.8516C99.9141 42.2108 101.016 43.3125 102.375 43.3125H104.836V50.6953H102.375C101.016 50.6953 99.9141 51.797 99.9141 53.1562C99.9141 54.5155 101.016 55.6172 102.375 55.6172H104.836V65.4609H102.375C101.016 65.4609 99.9141 66.5626 99.9141 67.9219C99.9141 69.2812 101.016 70.3828 102.375 70.3828H104.836V75.3047H90.0703ZM63.4086 50.5252C64.3026 50.5252 65.1927 50.4223 66.0637 50.23C66.5203 53.1572 67.1913 58.3367 67.5883 65.4609H58.428C58.8443 58.3415 59.547 53.0813 60.0325 50.0551C61.1226 50.3656 62.2579 50.5252 63.4086 50.5252ZM63.4086 45.6033C57.784 45.6033 54.157 39.4817 57.0072 34.5368L63.4086 23.4548L69.806 34.5358C72.6457 39.4606 69.0687 45.6033 63.4086 45.6033ZM58.2021 70.3828H67.8046C67.8565 71.9997 67.8921 73.6445 67.9094 75.3047H58.0916C58.1098 73.6551 58.1473 72.0103 58.2021 70.3828ZM31.0078 75.3047V40.8516H35.9297V75.3047H31.0078ZM21.1641 75.3047V40.8516H26.0859V75.3047H21.1641ZM22.6848 35.9297L28.5469 24.2056L34.4089 35.9297H22.6848ZM84.7264 121.078H41.2707C41.6321 120.052 42.2224 119.112 43.0145 118.319C44.4103 116.924 46.2637 116.156 48.2344 116.156H77.7656C80.9745 116.156 83.7113 118.213 84.7264 121.078ZM70.3828 111.234H55.6172V99.9141H70.3828V111.234ZM113.695 94.9922H12.3047C8.23357 94.9922 4.92188 91.6805 4.92188 87.6094V80.2266H121.078V87.6094C121.078 91.6805 117.766 94.9922 113.695 94.9922Z" fill="black"/>
<path d="M67.9219 85.1484H53.1562C51.797 85.1484 50.6953 86.2501 50.6953 87.6094C50.6953 88.9687 51.797 90.0703 53.1562 90.0703H67.9219C69.2812 90.0703 70.3828 88.9687 70.3828 87.6094C70.3828 86.2501 69.2812 85.1484 67.9219 85.1484Z" fill="black"/>
</svg>
