<svg width="100" height="100" viewBox="0 0 100 100" fill="none" xmlns="http://www.w3.org/2000/svg">
<path d="M61.7188 67.5781C60.6407 67.5781 59.7656 68.4532 59.7656 69.5312C59.7656 70.6093 60.6407 71.4844 61.7188 71.4844C62.7968 71.4844 63.6719 70.6093 63.6719 69.5312C63.6719 68.4532 62.7968 67.5781 61.7188 67.5781Z" fill="black"/>
<path d="M90.2344 0H9.76562C4.3808 0 0 4.3808 0 9.76562V69.5312C0 74.9161 4.3808 79.2969 9.76562 79.2969H40.2344V88.2812H38.2812C35.6735 88.2812 33.2222 89.2975 31.3766 91.1423C29.5319 92.9878 28.5156 95.4391 28.5156 98.0469C28.5156 99.1257 29.39 100 30.4688 100H69.5312C70.61 100 71.4844 99.1257 71.4844 98.0469C71.4844 92.662 67.1036 88.2812 61.7188 88.2812H59.7656V79.2969H90.2344C95.6192 79.2969 100 74.9161 100 69.5312V9.76562C100 4.3808 95.6192 0 90.2344 0ZM9.76562 3.90625H90.2344C93.4654 3.90625 96.0938 6.53458 96.0938 9.76562V59.7656H87.1094V14.8438C87.1094 13.765 86.235 12.8906 85.1562 12.8906H69.5312C68.4525 12.8906 67.5781 13.765 67.5781 14.8438V59.7656H57.8018C57.7812 57.7454 57.7286 55.7541 57.6447 53.8223C57.3029 45.8679 56.5239 40.5396 56.1188 38.1958C60.1486 35.2287 61.2488 29.7295 58.7852 25.457L52.0157 13.7321C51.6663 13.1279 51.0216 12.7556 50.3242 12.7556C49.6262 12.7556 48.9815 13.1279 48.6328 13.7321L41.8602 25.4578C39.5378 29.4861 40.361 34.7038 44.0094 37.7831C43.5867 40.1199 42.7338 45.639 42.363 53.8185C42.2752 55.7709 42.2195 57.7637 42.1982 59.7656H32.4219V30.4688C32.4219 30.159 32.3486 29.8767 32.2289 29.6257C32.2235 29.6158 32.2205 29.6051 32.2159 29.5952L24.4034 13.9702C24.0723 13.3087 23.3963 12.8906 22.6562 12.8906C21.9162 12.8906 21.2402 13.3087 20.9091 13.9702L13.0966 29.5952C13.092 29.6051 13.089 29.6158 13.0844 29.6257C12.9623 29.879 12.8906 30.1659 12.8906 30.4688V59.7656H3.90625V9.76562C3.90625 6.53458 6.53458 3.90625 9.76562 3.90625V3.90625ZM71.4844 59.7656V16.7969H83.2031V20.7031H81.25C80.1712 20.7031 79.2969 21.5775 79.2969 22.6562C79.2969 23.735 80.1712 24.6094 81.25 24.6094H83.2031V30.4688H81.25C80.1712 30.4688 79.2969 31.3431 79.2969 32.4219C79.2969 33.5007 80.1712 34.375 81.25 34.375H83.2031V40.2344H81.25C80.1712 40.2344 79.2969 41.1087 79.2969 42.1875C79.2969 43.2663 80.1712 44.1406 81.25 44.1406H83.2031V51.9531H81.25C80.1712 51.9531 79.2969 52.8275 79.2969 53.9062C79.2969 54.985 80.1712 55.8594 81.25 55.8594H83.2031V59.7656H71.4844ZM50.3242 40.0993C51.0338 40.0993 51.7403 40.0177 52.4315 39.8651C52.7939 42.1883 53.3264 46.299 53.6415 51.9531H46.3715C46.7018 46.3028 47.2595 42.128 47.6448 39.7263C48.51 39.9727 49.411 40.0993 50.3242 40.0993ZM50.3242 36.1931C45.8603 36.1931 42.9817 31.3347 45.2438 27.4101L50.3242 18.615L55.4016 27.4094C57.6553 31.3179 54.8164 36.1931 50.3242 36.1931ZM46.1922 55.8594H53.8132C53.8544 57.1426 53.8826 58.448 53.8963 59.7656H46.1044C46.1189 58.4564 46.1487 57.151 46.1922 55.8594ZM24.6094 59.7656V32.4219H28.5156V59.7656H24.6094ZM16.7969 59.7656V32.4219H20.7031V59.7656H16.7969ZM18.0038 28.5156L22.6562 19.2108L27.3087 28.5156H18.0038ZM67.2432 96.0938H32.7545C33.0414 95.2797 33.5098 94.5335 34.1385 93.9041C35.2463 92.7971 36.7172 92.1875 38.2812 92.1875H61.7188C64.2654 92.1875 66.4375 93.8202 67.2432 96.0938ZM55.8594 88.2812H44.1406V79.2969H55.8594V88.2812ZM90.2344 75.3906H9.76562C6.53458 75.3906 3.90625 72.7623 3.90625 69.5312V63.6719H96.0938V69.5312C96.0938 72.7623 93.4654 75.3906 90.2344 75.3906Z" fill="black"/>
<path d="M53.9062 67.5781H42.1875C41.1087 67.5781 40.2344 68.4525 40.2344 69.5312C40.2344 70.61 41.1087 71.4844 42.1875 71.4844H53.9062C54.985 71.4844 55.8594 70.61 55.8594 69.5312C55.8594 68.4525 54.985 67.5781 53.9062 67.5781Z" fill="black"/>
</svg>
