<svg width="126" height="126" viewBox="0 0 126 126" fill="none" xmlns="http://www.w3.org/2000/svg">
<g clip-path="url(#clip0)">
<path d="M8.39987 109.2H40.7026L38.6021 113.4H37.8004C31.2251 113.4 27.3001 116.54 27.3001 121.8C27.3001 124.12 29.1804 126 31.5 126H94.5C96.8196 126 98.6999 124.12 98.6999 121.8C98.6999 116.54 94.7749 113.4 88.1996 113.4H87.3979L85.2974 109.2H117.6C122.239 109.2 126 105.44 126 100.8V27.3001C126 22.6608 122.239 18.9002 117.6 18.9002H94.5C93.3407 18.9002 92.3996 19.8403 92.3996 20.9997C92.3996 22.16 93.3407 23.1001 94.5 23.1001H117.6C119.92 23.1001 121.8 24.9804 121.8 27.3001V100.8C121.8 103.12 119.92 105 117.6 105H8.39987C6.08025 105 4.19994 103.12 4.19994 100.8V27.3001C4.19994 24.9804 6.08025 23.1001 8.39987 23.1001H31.5C32.6593 23.1001 33.6004 22.16 33.6004 20.9997C33.6004 19.8403 32.6593 18.9002 31.5 18.9002H8.39987C3.76062 18.9002 0 22.6608 0 27.3001V100.8C0 105.44 3.76062 109.2 8.39987 109.2ZM94.5 121.8H31.5C31.5 120.761 31.5 117.6 37.8004 117.6H88.1996C94.5 117.6 94.5 120.761 94.5 121.8ZM80.6005 109.2L82.7 113.4H43.2981L45.3976 109.2H80.6005Z" fill="black"/>
<path d="M111.3 88.1996H14.7003C13.54 88.1996 12.5998 87.2595 12.5998 86.1001V33.6004C12.5998 32.4402 13.54 31.5 14.7003 31.5H20.9997C22.16 31.5 23.1002 30.5598 23.1002 29.3996C23.1002 28.2402 22.16 27.3001 20.9997 27.3001H14.7003C11.2204 27.3001 8.3999 30.1205 8.3999 33.6004V86.1001C8.3999 89.5791 11.2204 92.3996 14.7003 92.3996H111.3C114.78 92.3996 117.6 89.5791 117.6 86.1001V33.6004C117.6 30.1205 114.78 27.3001 111.3 27.3001H105C103.84 27.3001 102.9 28.2402 102.9 29.3996C102.9 30.5598 103.84 31.5 105 31.5H111.3C112.46 31.5 113.4 32.4402 113.4 33.6004V86.1001C113.4 87.2595 112.46 88.1996 111.3 88.1996Z" fill="black"/>
<path d="M52.4997 96.6005C51.3404 96.6005 50.4002 97.5406 50.4002 98.7C50.4002 99.8602 51.3404 100.8 52.4997 100.8H73.5003C74.6597 100.8 75.5998 99.8602 75.5998 98.7C75.5998 97.5406 74.6597 96.6005 73.5003 96.6005H52.4997Z" fill="black"/>
<path d="M89.9972 12.2076L86.4952 8.70268C85.0754 7.28764 82.8538 7.07327 81.1898 8.19031L75.9401 11.6568C74.3165 10.7829 72.6034 10.0841 70.8308 9.57362L69.5936 3.38283C69.2042 1.41792 67.4816 0.00192261 65.4782 0H60.5217C58.5203 0 56.7967 1.41216 56.4035 3.37514L55.1336 9.55728C53.3648 10.0812 51.6585 10.7916 50.0406 11.6779L44.8121 8.19031C43.1462 7.0752 40.9246 7.29341 39.5076 8.71037L35.9998 12.2153C34.5973 13.6361 34.3839 15.8471 35.4904 17.5101L38.9587 22.7598C38.0859 24.3844 37.388 26.0975 36.8756 27.8692L30.6848 29.1035C28.7228 29.4976 27.3077 31.2183 27.3 33.2198V38.1801C27.3049 40.1806 28.716 41.9013 30.6771 42.2983L36.8573 43.5586C37.3822 45.3255 38.0926 47.0327 38.976 48.6506L35.4904 53.8897C34.381 55.5576 34.6002 57.7753 36.0133 59.1952L39.5153 62.6972C40.9333 64.1151 43.1539 64.3324 44.8198 63.2182L50.0704 59.7518C51.6941 60.6256 53.4071 61.3235 55.1798 61.8349L56.416 68.0257C56.8092 69.9829 58.5251 71.3941 60.5217 71.3999H65.4782C67.4797 71.3999 69.2033 69.9877 69.5965 68.0257L70.8663 61.8426C72.6351 61.3196 74.3414 60.6083 75.9593 59.722L81.1879 63.2182C82.8548 64.3343 85.0773 64.1161 86.4952 62.6972L90.0001 59.1952C91.4113 57.7744 91.6286 55.5576 90.5202 53.8897L87.0508 48.64C87.9208 47.0231 88.6245 45.3226 89.1513 43.5644L87.1393 42.9664L89.1426 43.5307L95.3334 42.2964C97.2887 41.8946 98.6942 40.1758 98.6999 38.1801V33.2198C98.6951 31.2193 97.2839 29.4986 95.3229 29.1015L89.1426 27.8422C88.6178 26.0744 87.9074 24.3671 87.0239 22.7493L90.5202 17.5178C91.6382 15.85 91.419 13.6255 89.9972 12.2076ZM83.5296 20.4094C82.674 21.7101 82.6048 23.3751 83.3489 24.742C84.0823 26.108 84.6755 27.5442 85.1177 29.0304C85.5502 30.5329 86.7817 31.6702 88.313 31.9826L94.5 33.2198V38.1801L88.313 39.4173C86.7817 39.7297 85.5502 40.8669 85.1177 42.3695C84.6745 43.8556 84.0823 45.2937 83.3489 46.6598C82.6019 48.0258 82.6721 49.6936 83.5315 50.9924L87.0278 56.2238L83.5229 59.7277L78.2924 56.2315C76.9927 55.3749 75.3258 55.3038 73.9579 56.0469C72.5919 56.7813 71.1538 57.3745 69.6676 57.8176C68.1718 58.256 67.0403 59.4845 66.7279 61.0111L65.4782 67.1999H60.5217L59.2826 61.0091C58.9664 59.4787 57.8291 58.2502 56.3285 57.8147C54.8433 57.3735 53.4071 56.7813 52.0421 56.0488C51.4182 55.7124 50.7203 55.5355 50.0118 55.5345C49.1889 55.5326 48.3853 55.7748 47.7018 56.2315L42.4704 59.7277L38.9655 56.2238L42.4637 50.9904C43.3192 49.6898 43.3884 48.0248 42.6444 46.6578C41.9109 45.2918 41.3187 43.8556 40.8765 42.3695C40.444 40.8669 39.2125 39.7297 37.6802 39.4173L31.5 38.1801V33.2198L37.6869 31.9826C39.2183 31.6702 40.4497 30.5329 40.8823 29.0304C41.3255 27.5442 41.9176 26.1071 42.6511 24.7401C43.398 23.3741 43.3279 21.7062 42.4685 20.4075L38.9722 15.1771L42.4771 11.6721L47.7076 15.1684C49.0063 16.0288 50.6751 16.0999 52.0421 15.353C53.4081 14.6185 54.8462 14.0254 56.3324 13.5832C57.832 13.1478 58.9683 11.9182 59.2826 10.3888L60.5217 4.19994H65.4782L66.7173 10.3907C67.0336 11.9211 68.1708 13.1506 69.6714 13.5851C71.1566 14.0264 72.5928 14.6185 73.9579 15.3511C75.3249 16.099 76.9927 16.0288 78.2924 15.1684L83.5229 11.6721L87.0278 15.1771L83.5296 20.4094Z" fill="black"/>
<path d="M63 18.9002C53.7215 18.9002 46.2003 26.4214 46.2003 35.6999C46.2003 44.9784 53.7215 52.4997 63 52.4997C72.2785 52.4997 79.7997 44.9784 79.7997 35.6999C79.7892 26.4262 72.2737 18.9108 63 18.9002ZM63 48.2997C56.0411 48.2997 50.4002 42.6588 50.4002 35.6999C50.4002 28.7411 56.0411 23.1001 63 23.1001C69.9589 23.1001 75.5998 28.7411 75.5998 35.6999C75.5931 42.6559 69.956 48.293 63 48.2997Z" fill="black"/>
<path d="M65.1004 35.6999C65.1004 36.8602 64.1593 37.8004 63 37.8004C61.8407 37.8004 60.8995 36.8602 60.8995 35.6999C60.8995 34.5406 61.8407 33.6004 63 33.6004C64.1593 33.6004 65.1004 34.5406 65.1004 35.6999Z" fill="black"/>
</g>
<defs>
<clipPath id="clip0">
<rect width="126" height="126" fill="white"/>
</clipPath>
</defs>
</svg>
