<svg width="100" height="100" viewBox="0 0 100 100" fill="none" xmlns="http://www.w3.org/2000/svg">
<g clip-path="url(#clip0)">
<path d="M6.66656 86.6669H32.3036L30.6366 90.0002H30.0003C24.7818 90.0002 21.6667 92.4919 21.6667 96.6667C21.6667 98.5077 23.159 100 25 100H75C76.841 100 78.3333 98.5077 78.3333 96.6667C78.3333 92.4919 75.2182 90.0002 69.9997 90.0002H69.3634L67.6964 86.6669H93.3334C97.0154 86.6669 100 83.6823 100 80.0003V21.6667C100 17.9848 97.0154 15.0002 93.3334 15.0002H75C74.0799 15.0002 73.333 15.7463 73.333 16.6664C73.333 17.5873 74.0799 18.3334 75 18.3334H93.3334C95.1744 18.3334 96.6667 19.8257 96.6667 21.6667V80.0003C96.6667 81.8413 95.1744 83.3336 93.3334 83.3336H6.66656C4.82559 83.3336 3.33328 81.8413 3.33328 80.0003V21.6667C3.33328 19.8257 4.82559 18.3334 6.66656 18.3334H25C25.9201 18.3334 26.667 17.5873 26.667 16.6664C26.667 15.7463 25.9201 15.0002 25 15.0002H6.66656C2.98462 15.0002 0 17.9848 0 21.6667V80.0003C0 83.6823 2.98462 86.6669 6.66656 86.6669V86.6669ZM75 96.6667H25C25 95.842 25 93.3334 30.0003 93.3334H69.9997C75 93.3334 75 95.842 75 96.6667ZM63.9687 86.6669L65.6349 90.0002H34.3636L36.0298 86.6669H63.9687Z" fill="black"/>
<path d="M88.3331 69.9997H11.6669C10.746 69.9997 9.99985 69.2535 9.99985 68.3334V26.667C9.99985 25.7462 10.746 25 11.6669 25H16.6664C17.5873 25 18.3334 24.2538 18.3334 23.333C18.3334 22.4129 17.5873 21.6667 16.6664 21.6667H11.6669C8.90503 21.6667 6.66656 23.9052 6.66656 26.667V68.3334C6.66656 71.0945 8.90503 73.333 11.6669 73.333H88.3331C91.095 73.333 93.3334 71.0945 93.3334 68.3334V26.667C93.3334 23.9052 91.095 21.6667 88.3331 21.6667H83.3336C82.4127 21.6667 81.6666 22.4129 81.6666 23.333C81.6666 24.2538 82.4127 25 83.3336 25H88.3331C89.254 25 90.0002 25.7462 90.0002 26.667V68.3334C90.0002 69.2535 89.254 69.9997 88.3331 69.9997V69.9997Z" fill="black"/>
<path d="M41.6664 76.667C40.7463 76.667 40.0001 77.4132 40.0001 78.3333C40.0001 79.2542 40.7463 80.0003 41.6664 80.0003H58.3336C59.2537 80.0003 59.9998 79.2542 59.9998 78.3333C59.9998 77.4132 59.2537 76.667 58.3336 76.667H41.6664Z" fill="black"/>
<path d="M71.4264 9.68857L68.647 6.90689C67.5202 5.78384 65.757 5.61371 64.4364 6.50024L60.27 9.2514C58.9814 8.55789 57.6218 8.00323 56.2149 7.59811L55.233 2.68478C54.924 1.12534 53.5569 0.00152588 51.9669 0H48.0332C46.4447 0 45.0768 1.12076 44.7647 2.67868L43.7569 7.58514C42.3531 8.00095 40.9989 8.56476 39.7148 9.26819L35.5652 6.50024C34.243 5.61523 32.4799 5.78842 31.3553 6.91299L28.5713 9.69467C27.4582 10.8223 27.2888 12.5771 28.167 13.8969L30.9197 18.0634C30.2269 19.3527 29.673 20.7123 29.2664 22.1184L24.3531 23.098C22.7959 23.4108 21.6729 24.7765 21.6667 26.3649V30.3017C21.6706 31.8893 22.7906 33.255 24.347 33.5701L29.2519 34.5703C29.6685 35.9726 30.2323 37.3276 30.9334 38.6116L28.167 42.7696C27.2866 44.0933 27.4605 45.8534 28.582 46.9803L31.3614 49.7597C32.4868 50.885 34.2491 51.0574 35.5713 50.1732L39.7385 47.422C41.0271 48.1155 42.3867 48.6694 43.7935 49.0753L44.7747 53.9886C45.0867 55.542 46.4485 56.662 48.0332 56.6666H51.9669C53.5553 56.6666 54.9233 55.5458 55.2353 53.9886L56.2432 49.0814C57.647 48.6664 59.0012 48.1018 60.2852 47.3984L64.4348 50.1732C65.7578 51.059 67.5217 50.8858 68.647 49.7597L71.4287 46.9803C72.5487 45.8527 72.7211 44.0933 71.8415 42.7696L69.088 38.6032C69.7785 37.3199 70.3369 35.9703 70.755 34.5749L69.1582 34.1003L70.7482 34.5482L75.6615 33.5686C77.2133 33.2497 78.3287 31.8855 78.3333 30.3017V26.3649C78.3295 24.7772 77.2095 23.4116 75.6531 23.0965L70.7482 22.097C70.3316 20.694 69.7678 19.339 69.0666 18.055L71.8415 13.903C72.7288 12.5793 72.5548 10.8139 71.4264 9.68857V9.68857ZM66.2934 16.198C65.6143 17.2302 65.5594 18.5516 66.1499 19.6365C66.7321 20.7207 67.2028 21.8605 67.5537 23.04C67.8971 24.2325 68.8744 25.135 70.0897 25.383L75 26.3649V30.3017L70.0897 31.2836C68.8744 31.5315 67.8971 32.4341 67.5537 33.6266C67.202 34.8061 66.7321 35.9474 66.1499 37.0316C65.5571 38.1157 65.6128 39.4394 66.2949 40.4701L69.0697 44.622L66.288 47.403L62.1369 44.6281C61.1054 43.9484 59.7824 43.8919 58.6968 44.4817C57.6126 45.0645 56.4713 45.5353 55.2918 45.887C54.1046 46.2349 53.2067 47.2099 52.9587 48.4215L51.9669 53.3333H48.0332L47.0497 48.42C46.7987 47.2054 45.8962 46.2303 44.7052 45.8847C43.5265 45.5345 42.3867 45.0645 41.3033 44.4832C40.8081 44.2162 40.2542 44.0758 39.692 44.075C39.0389 44.0735 38.4011 44.2657 37.8586 44.6281L33.7067 47.403L30.925 44.622L33.7014 40.4686C34.3804 39.4363 34.4353 38.1149 33.8448 37.03C33.2627 35.9459 32.7927 34.8061 32.4417 33.6266C32.0984 32.4341 31.1211 31.5315 29.905 31.2836L25 30.3017V26.3649L29.9103 25.383C31.1257 25.135 32.103 24.2325 32.4463 23.04C32.798 21.8605 33.268 20.7199 33.8501 19.635C34.4429 18.5509 34.3872 17.2272 33.7052 16.1964L30.9304 12.0453L33.712 9.26361L37.8632 12.0384C38.8939 12.7213 40.2184 12.7777 41.3033 12.1849C42.3874 11.602 43.5288 11.1313 44.7083 10.7803C45.8985 10.4347 46.8003 9.45892 47.0497 8.24509L48.0332 3.33328H51.9669L52.9503 8.24661C53.2013 9.46121 54.1039 10.437 55.2948 10.7819C56.4736 11.132 57.6134 11.602 58.6968 12.1834C59.7817 12.7769 61.1054 12.7213 62.1369 12.0384L66.288 9.26361L69.0697 12.0453L66.2934 16.198Z" fill="black"/>
<path d="M50 15.0002C42.6361 15.0002 36.6669 20.9694 36.6669 28.3333C36.6669 35.6972 42.6361 41.6664 50 41.6664C57.3639 41.6664 63.3331 35.6972 63.3331 28.3333C63.3247 20.9732 57.3601 15.0085 50 15.0002ZM50 38.3331C44.4771 38.3331 40.0002 33.8562 40.0002 28.3333C40.0002 22.8104 44.4771 18.3334 50 18.3334C55.5229 18.3334 59.9998 22.8104 59.9998 28.3333C59.9945 33.8539 55.5206 38.3278 50 38.3331V38.3331Z" fill="black"/>
<path d="M51.6671 28.3333C51.6671 29.2542 50.9201 30.0003 50 30.0003C49.0799 30.0003 48.333 29.2542 48.333 28.3333C48.333 27.4132 49.0799 26.667 50 26.667C50.9201 26.667 51.6671 27.4132 51.6671 28.3333Z" fill="black"/>
</g>
<defs>
<clipPath id="clip0">
<rect width="100" height="100" fill="white"/>
</clipPath>
</defs>
</svg>
