<svg width="50" height="50" viewBox="0 0 50 50" fill="none" xmlns="http://www.w3.org/2000/svg">
<path d="M32.8125 9.375C34.8828 9.375 36.8457 10.1953 38.3301 11.6699C39.8145 13.1445 40.625 15.1172 40.625 17.1875V32.8125C40.625 34.8828 39.8047 36.8457 38.3301 38.3301C36.8555 39.8145 34.8828 40.625 32.8125 40.625H17.1875C15.1172 40.625 13.1543 39.8047 11.6699 38.3301C10.1855 36.8555 9.375 34.8828 9.375 32.8125V17.1875C9.375 15.1172 10.1953 13.1543 11.6699 11.6699C13.1445 10.1855 15.1172 9.375 17.1875 9.375H32.8125ZM32.8125 6.25H17.1875C11.1719 6.25 6.25 11.1719 6.25 17.1875V32.8125C6.25 38.8281 11.1719 43.75 17.1875 43.75H32.8125C38.8281 43.75 43.75 38.8281 43.75 32.8125V17.1875C43.75 11.1719 38.8281 6.25 32.8125 6.25Z" fill="black"/>
<path d="M35.1562 17.1875C33.8574 17.1875 32.8125 16.1426 32.8125 14.8438C32.8125 13.5449 33.8574 12.5 35.1562 12.5C36.4453 12.5 37.5 13.5449 37.5 14.8438C37.5 16.1426 36.4453 17.1875 35.1562 17.1875ZM25 18.75C28.4473 18.75 31.25 21.5527 31.25 25C31.25 28.4473 28.4473 31.25 25 31.25C21.5527 31.25 18.75 28.4473 18.75 25C18.75 21.5527 21.5527 18.75 25 18.75ZM25 15.625C19.8242 15.625 15.625 19.8242 15.625 25C15.625 30.1758 19.8242 34.375 25 34.375C30.1758 34.375 34.375 30.1758 34.375 25C34.375 19.8242 30.1758 15.625 25 15.625Z" fill="black"/>
</svg>
