<svg width="50" height="50" viewBox="0 0 50 50" fill="none" xmlns="http://www.w3.org/2000/svg">
<path d="M40.7422 6.25H9.45313C7.74414 6.25 6.25 7.48047 6.25 9.16992V40.5273C6.25 42.2266 7.74414 43.7402 9.45313 43.7402H40.7324C42.4512 43.7402 43.7402 42.2168 43.7402 40.5273V9.16992C43.75 7.48047 42.4512 6.25 40.7422 6.25ZM17.8711 37.5H12.5V20.8008H17.8711V37.5ZM15.3711 18.2617H15.332C13.6133 18.2617 12.5 16.9824 12.5 15.3809C12.5 13.75 13.6426 12.5 15.4004 12.5C17.1582 12.5 18.2324 13.7402 18.2715 15.3809C18.2715 16.9824 17.1582 18.2617 15.3711 18.2617ZM37.5 37.5H32.1289V28.3691C32.1289 26.1816 31.3477 24.6875 29.4043 24.6875C27.9199 24.6875 27.041 25.6934 26.6504 26.6699C26.5039 27.0215 26.4648 27.5 26.4648 27.9883V37.5H21.0938V20.8008H26.4648V23.125C27.2461 22.0117 28.4668 20.4102 31.3086 20.4102C34.834 20.4102 37.5 22.7344 37.5 27.7441V37.5V37.5Z" fill="black"/>
</svg>
