<svg width="100" height="100" viewBox="0 0 100 100" fill="none" xmlns="http://www.w3.org/2000/svg">
<path d="M95 50H93.3333V15C93.3279 10.4 89.6 6.67209 85 6.66667H15C10.4 6.67209 6.67208 10.4 6.66667 15V40H5C2.23854 40 0 42.2385 0 45V88.3333C0 91.0948 2.23854 93.3333 5 93.3333H68.3333C69.2537 93.3333 70 92.5871 70 91.6667C69.9946 87.0667 66.2667 83.3388 61.6667 83.3333H56.6667V73.3333H76.6667V88.3333C76.6667 91.0948 78.9052 93.3333 81.6667 93.3333H95C97.7615 93.3333 100 91.0948 100 88.3333V55C100 52.2385 97.7615 50 95 50ZM36.6667 88.3333C36.6667 89.2538 35.9204 90 35 90H5C4.07958 90 3.33333 89.2538 3.33333 88.3333V86.6667H36.6667V88.3333ZM36.6667 83.3333H3.33333V45C3.33333 44.0796 4.07958 43.3333 5 43.3333H35C35.9204 43.3333 36.6667 44.0796 36.6667 45V83.3333ZM61.6667 86.6667C63.785 86.6692 65.6727 88.0038 66.3817 90H39.6933C39.8908 89.4663 39.9944 88.9025 40 88.3333V86.6667H61.6667ZM40 83.3333V73.3333H43.3333V83.3333H40ZM46.6667 83.3333V73.3333H53.3333V83.3333H46.6667ZM76.6667 70H40V60H76.6667V70ZM76.6667 55V56.6667H40V45C39.9944 44.2092 39.7988 43.4313 39.43 42.7317C39.455 42.7083 39.4883 42.7017 39.5117 42.6767L56.0117 26.1767C56.6512 25.5146 56.6329 24.4594 55.9708 23.82C55.325 23.1963 54.301 23.1963 53.655 23.82L37.155 40.32C37.115 40.3617 37.0983 40.415 37.0633 40.4583C36.4167 40.1583 35.7127 40.0021 35 40H10V15C10 12.2385 12.2385 10 15 10H85C87.7615 10 90 12.2385 90 15V50H81.6667C78.9052 50 76.6667 52.2385 76.6667 55ZM96.6667 88.3333C96.6667 89.2538 95.9204 90 95 90H81.6667C80.7462 90 80 89.2538 80 88.3333V86.6667H96.6667V88.3333ZM96.6667 83.3333H80V55C80 54.0796 80.7462 53.3333 81.6667 53.3333H95C95.9204 53.3333 96.6667 54.0796 96.6667 55V83.3333Z" fill="black"/>
<path d="M19.915 60.2867C19.2642 59.6361 18.2092 59.6361 17.5583 60.2867L10.4883 67.3567C9.82626 67.9962 9.80793 69.0512 10.4475 69.7133C11.0871 70.3754 12.1421 70.3937 12.8042 69.7542C12.8181 69.7408 12.8317 69.7271 12.845 69.7133L19.915 62.6433C20.2125 62.1277 19.6146 61.1475 19.915 60.2867Z" fill="black"/>
<path d="M29.8742 60.2867C29.2283 59.6629 28.2044 59.6629 27.5583 60.2867L20.4883 67.3567C19.8263 67.996 19.8079 69.0512 20.4475 69.7133C21.0869 70.3754 22.1421 70.3937 22.8042 69.7542C22.8181 69.7408 22.8317 69.7271 22.845 69.7133L29.915 62.6433C30.5544 61.9812 30.5363 60.926 29.8742 60.2867Z" fill="black"/>
<path d="M66.1375 23.8217C65.4916 23.1979 64.4677 23.1979 63.8216 23.8217L47.3217 40.3217C46.6596 40.961 46.6412 42.0162 47.2806 42.6783C47.92 43.3404 48.9752 43.3587 49.6373 42.7194C49.6512 42.706 49.6648 42.6923 49.6783 42.6783L66.1783 26.1783C66.8179 25.5162 66.7996 24.461 66.1375 23.8217Z" fill="black"/>
<path d="M91.8275 64.7984C91.1817 64.1744 90.1575 64.1744 89.5117 64.7984L84.7983 69.5117C84.1363 70.1513 84.1179 71.2063 84.7575 71.8683C85.3971 72.5304 86.4521 72.5488 87.1142 71.9092C87.1279 71.8958 87.1417 71.8821 87.155 71.8683L91.8683 67.155C92.5079 66.4929 92.4896 65.4379 91.8275 64.7984Z" fill="black"/>
<path d="M50.0333 63.3333H50.0167C49.0962 63.3379 48.3537 64.0879 48.3583 65.0083C48.3629 65.9288 49.1129 66.6713 50.0333 66.6667C50.9537 66.6667 51.7 65.9204 51.7 65C51.7 64.0796 50.9537 63.3333 50.0333 63.3333Z" fill="black"/>
<path d="M53.3333 13.3333H46.6667C45.7462 13.3333 45 14.0796 45 15C45 15.9204 45.7462 16.6667 46.6667 16.6667H53.3333C54.2537 16.6667 55 15.9204 55 15C55 14.0796 54.2537 13.3333 53.3333 13.3333Z" fill="black"/>
</svg>
