<svg width="126" height="126" viewBox="0 0 126 126" fill="none" xmlns="http://www.w3.org/2000/svg">
<path d="M119.7 63H117.6V18.9C117.593 13.104 112.896 8.40682 107.1 8.39999H18.9C13.104 8.40682 8.40683 13.104 8.4 18.9V50.4H6.3C2.82056 50.4 0 53.2206 0 56.7V111.3C0 114.779 2.82056 117.6 6.3 117.6H86.1C87.2597 117.6 88.2 116.66 88.2 115.5C88.1932 109.704 83.496 105.007 77.7 105H71.4V92.4H96.6V111.3C96.6 114.779 99.4206 117.6 102.9 117.6H119.7C123.179 117.6 126 114.779 126 111.3V69.3C126 65.8206 123.179 63 119.7 63ZM46.2 111.3C46.2 112.46 45.2597 113.4 44.1 113.4H6.3C5.14028 113.4 4.2 112.46 4.2 111.3V109.2H46.2V111.3ZM46.2 105H4.2V56.7C4.2 55.5403 5.14028 54.6 6.3 54.6H44.1C45.2597 54.6 46.2 55.5403 46.2 56.7V105ZM77.7 109.2C80.3691 109.203 82.7476 110.885 83.6409 113.4H50.0136C50.2625 112.727 50.3929 112.017 50.4 111.3V109.2H77.7ZM50.4 105V92.4H54.6V105H50.4ZM58.8 105V92.4H67.2V105H58.8ZM96.6 88.2H50.4V75.6H96.6V88.2ZM96.6 69.3V71.4H50.4V56.7C50.3929 55.7035 50.1464 54.7234 49.6818 53.8419C49.7133 53.8125 49.7553 53.8041 49.7847 53.7726L70.5747 32.9826C71.3806 32.1484 71.3575 30.8188 70.5232 30.0132C69.7095 29.2273 68.4193 29.2273 67.6053 30.0132L46.8153 50.8032C46.7649 50.8557 46.7439 50.9229 46.6998 50.9775C45.885 50.5995 44.998 50.4026 44.1 50.4H12.6V18.9C12.6 15.4206 15.4206 12.6 18.9 12.6H107.1C110.579 12.6 113.4 15.4206 113.4 18.9V63H102.9C99.4206 63 96.6 65.8206 96.6 69.3ZM121.8 111.3C121.8 112.46 120.86 113.4 119.7 113.4H102.9C101.74 113.4 100.8 112.46 100.8 111.3V109.2H121.8V111.3ZM121.8 105H100.8V69.3C100.8 68.1403 101.74 67.2 102.9 67.2H119.7C120.86 67.2 121.8 68.1403 121.8 69.3V105Z" fill="black"/>
<path d="M25.0929 75.9612C24.2728 75.1414 22.9435 75.1414 22.1235 75.9612L13.2153 84.8694C12.3811 85.6753 12.358 87.0046 13.1638 87.8388C13.9697 88.673 15.299 88.6961 16.1332 87.8902C16.1508 87.8734 16.1679 87.8561 16.1847 87.8388L25.0929 78.9306C25.4677 78.2809 24.7144 77.0459 25.0929 75.9612Z" fill="black"/>
<path d="M37.6414 75.9612C36.8277 75.1753 35.5375 75.1753 34.7235 75.9612L25.8153 84.8694C24.9811 85.675 24.958 87.0046 25.7639 87.8388C26.5695 88.673 27.899 88.6961 28.7333 87.8903C28.7508 87.8735 28.7679 87.8561 28.7847 87.8388L37.6929 78.9306C38.4985 78.0964 38.4757 76.7668 37.6414 75.9612Z" fill="black"/>
<path d="M83.3332 30.0153C82.5195 29.2294 81.2293 29.2294 80.4153 30.0153L59.6253 50.8053C58.7911 51.6109 58.768 52.9405 59.5736 53.7747C60.3792 54.6089 61.7088 54.632 62.543 53.8264C62.5606 53.8096 62.5776 53.7923 62.5947 53.7747L83.3847 32.9847C84.1906 32.1505 84.1675 30.8209 83.3332 30.0153Z" fill="black"/>
<path d="M115.703 81.6459C114.889 80.8597 113.598 80.8597 112.785 81.6459L106.846 87.5847C106.012 88.3906 105.989 89.7199 106.794 90.5541C107.6 91.3883 108.93 91.4114 109.764 90.6056C109.781 90.5888 109.799 90.5714 109.815 90.5541L115.754 84.6153C116.56 83.7811 116.537 82.4518 115.703 81.6459Z" fill="black"/>
<path d="M63.042 79.8H63.021C61.8613 79.8058 60.9257 80.7508 60.9315 81.9105C60.9373 83.0702 61.8823 84.0058 63.042 84C64.2017 84 65.142 83.0597 65.142 81.9C65.142 80.7403 64.2017 79.8 63.042 79.8Z" fill="black"/>
<path d="M67.2 16.8H58.8C57.6403 16.8 56.7 17.7403 56.7 18.9C56.7 20.0597 57.6403 21 58.8 21H67.2C68.3597 21 69.3 20.0597 69.3 18.9C69.3 17.7403 68.3597 16.8 67.2 16.8Z" fill="black"/>
</svg>
